<?xml version="1.0" encoding="UTF-8" standalone="no"?>
<!-- Created with Inkscape (http://www.inkscape.org/) -->

<svg
   xmlns:dc="http://purl.org/dc/elements/1.1/"
   xmlns:cc="http://creativecommons.org/ns#"
   xmlns:rdf="http://www.w3.org/1999/02/22-rdf-syntax-ns#"
   xmlns:svg="http://www.w3.org/2000/svg"
   xmlns="http://www.w3.org/2000/svg"
   xmlns:sodipodi="http://sodipodi.sourceforge.net/DTD/sodipodi-0.dtd"
   xmlns:inkscape="http://www.inkscape.org/namespaces/inkscape"
   width="1052.3622"
   height="1488.189"
   id="svg2"
   version="1.1"
   inkscape:version="0.47 r22583"
   sodipodi:docname="asym_a3_3x7_5cm.svg">
  <defs
     id="defs4">
    <inkscape:perspective
       sodipodi:type="inkscape:persp3d"
       inkscape:vp_x="0 : 526.18109 : 1"
       inkscape:vp_y="0 : 1000 : 0"
       inkscape:vp_z="744.09448 : 526.18109 : 1"
       inkscape:persp3d-origin="372.04724 : 350.78739 : 1"
       id="perspective10" />
    <inkscape:perspective
       id="perspective2855"
       inkscape:persp3d-origin="0.5 : 0.33333333 : 1"
       inkscape:vp_z="1 : 0.5 : 1"
       inkscape:vp_y="0 : 1000 : 0"
       inkscape:vp_x="0 : 0.5 : 1"
       sodipodi:type="inkscape:persp3d" />
    <inkscape:perspective
       id="perspective2855-0"
       inkscape:persp3d-origin="0.5 : 0.33333333 : 1"
       inkscape:vp_z="1 : 0.5 : 1"
       inkscape:vp_y="0 : 1000 : 0"
       inkscape:vp_x="0 : 0.5 : 1"
       sodipodi:type="inkscape:persp3d" />
    <inkscape:perspective
       id="perspective2855-08"
       inkscape:persp3d-origin="0.5 : 0.33333333 : 1"
       inkscape:vp_z="1 : 0.5 : 1"
       inkscape:vp_y="0 : 1000 : 0"
       inkscape:vp_x="0 : 0.5 : 1"
       sodipodi:type="inkscape:persp3d" />
    <inkscape:perspective
       id="perspective2855-5"
       inkscape:persp3d-origin="0.5 : 0.33333333 : 1"
       inkscape:vp_z="1 : 0.5 : 1"
       inkscape:vp_y="0 : 1000 : 0"
       inkscape:vp_x="0 : 0.5 : 1"
       sodipodi:type="inkscape:persp3d" />
    <inkscape:perspective
       id="perspective2904"
       inkscape:persp3d-origin="0.5 : 0.33333333 : 1"
       inkscape:vp_z="1 : 0.5 : 1"
       inkscape:vp_y="0 : 1000 : 0"
       inkscape:vp_x="0 : 0.5 : 1"
       sodipodi:type="inkscape:persp3d" />
    <inkscape:perspective
       id="perspective2904-6"
       inkscape:persp3d-origin="0.5 : 0.33333333 : 1"
       inkscape:vp_z="1 : 0.5 : 1"
       inkscape:vp_y="0 : 1000 : 0"
       inkscape:vp_x="0 : 0.5 : 1"
       sodipodi:type="inkscape:persp3d" />
    <inkscape:perspective
       id="perspective2904-7"
       inkscape:persp3d-origin="0.5 : 0.33333333 : 1"
       inkscape:vp_z="1 : 0.5 : 1"
       inkscape:vp_y="0 : 1000 : 0"
       inkscape:vp_x="0 : 0.5 : 1"
       sodipodi:type="inkscape:persp3d" />
    <inkscape:perspective
       id="perspective2958"
       inkscape:persp3d-origin="0.5 : 0.33333333 : 1"
       inkscape:vp_z="1 : 0.5 : 1"
       inkscape:vp_y="0 : 1000 : 0"
       inkscape:vp_x="0 : 0.5 : 1"
       sodipodi:type="inkscape:persp3d" />
    <inkscape:perspective
       id="perspective2958-5"
       inkscape:persp3d-origin="0.5 : 0.33333333 : 1"
       inkscape:vp_z="1 : 0.5 : 1"
       inkscape:vp_y="0 : 1000 : 0"
       inkscape:vp_x="0 : 0.5 : 1"
       sodipodi:type="inkscape:persp3d" />
  </defs>
  <sodipodi:namedview
     id="base"
     pagecolor="#ffffff"
     bordercolor="#666666"
     borderopacity="1.0"
     inkscape:pageopacity="0.0"
     inkscape:pageshadow="2"
     inkscape:zoom="0.49497475"
     inkscape:cx="37.195313"
     inkscape:cy="783.4922"
     inkscape:document-units="mm"
     inkscape:current-layer="layer1"
     showgrid="true"
     borderlayer="false"
     showguides="true"
     inkscape:guide-bbox="true"
     inkscape:snap-grids="true"
     inkscape:snap-bbox="false"
     inkscape:snap-bbox-midpoints="true"
     inkscape:snap-global="true"
     inkscape:snap-object-midpoints="true"
     inkscape:window-width="1920"
     inkscape:window-height="1125"
     inkscape:window-x="0"
     inkscape:window-y="24"
     inkscape:window-maximized="1">
    <inkscape:grid
       type="xygrid"
       id="grid2832"
       empspacing="5"
       visible="true"
       enabled="true"
       snapvisiblegridlinesonly="true"
       units="mm"
       spacingx="50mm"
       spacingy="50mm" />
  </sodipodi:namedview>
  <metadata
     id="metadata7">
    <rdf:RDF>
      <cc:Work
         rdf:about="">
        <dc:format>image/svg+xml</dc:format>
        <dc:type
           rdf:resource="http://purl.org/dc/dcmitype/StillImage" />
        <dc:title></dc:title>
      </cc:Work>
    </rdf:RDF>
  </metadata>
  <g
     inkscape:label="Layer 1"
     inkscape:groupmode="layer"
     id="layer1"
     transform="translate(0,435.82679)">
    <path
       sodipodi:type="arc"
       style="fill:#000000"
       id="path2845"
       sodipodi:cx="265.74802"
       sodipodi:cy="1222.4409"
       sodipodi:rx="88.58268"
       sodipodi:ry="88.58268"
       d="m 354.3307,1222.4409 c 0,48.9229 -39.65982,88.5827 -88.58268,88.5827 -48.92287,0 -88.58268,-39.6598 -88.58268,-88.5827 0,-48.9228 39.65981,-88.5827 88.58268,-88.5827 48.92286,0 88.58268,39.6599 88.58268,88.5827 z"
       transform="translate(-88.582662,-347.2441)" />
    <path
       sodipodi:type="arc"
       style="fill:#000000"
       id="path2845-2"
       sodipodi:cx="265.74802"
       sodipodi:cy="1222.4409"
       sodipodi:rx="88.58268"
       sodipodi:ry="88.58268"
       d="m 354.3307,1222.4409 c 0,48.9229 -39.65982,88.5827 -88.58268,88.5827 -48.92287,0 -88.58268,-39.6598 -88.58268,-88.5827 0,-48.9228 39.65981,-88.5827 88.58268,-88.5827 48.92286,0 88.58268,39.6599 88.58268,88.5827 z"
       transform="translate(265.74805,-347.2441)" />
    <path
       sodipodi:type="arc"
       style="fill:#000000"
       id="path2845-3"
       sodipodi:cx="265.74802"
       sodipodi:cy="1222.4409"
       sodipodi:rx="88.58268"
       sodipodi:ry="88.58268"
       d="m 354.3307,1222.4409 c 0,48.9229 -39.65982,88.5827 -88.58268,88.5827 -48.92287,0 -88.58268,-39.6598 -88.58268,-88.5827 0,-48.9228 39.65981,-88.5827 88.58268,-88.5827 48.92286,0 88.58268,39.6599 88.58268,88.5827 z"
       transform="translate(88.582692,-524.40945)" />
    <path
       sodipodi:type="arc"
       style="fill:#000000"
       id="path2845-7"
       sodipodi:cx="265.74802"
       sodipodi:cy="1222.4409"
       sodipodi:rx="88.58268"
       sodipodi:ry="88.58268"
       d="m 354.3307,1222.4409 c 0,48.9229 -39.65982,88.5827 -88.58268,88.5827 -48.92287,0 -88.58268,-39.6598 -88.58268,-88.5827 0,-48.9228 39.65981,-88.5827 88.58268,-88.5827 48.92286,0 88.58268,39.6599 88.58268,88.5827 z"
       transform="translate(442.9134,-524.40945)" />
    <path
       sodipodi:type="arc"
       style="fill:#000000"
       id="path2845-1"
       sodipodi:cx="265.74802"
       sodipodi:cy="1222.4409"
       sodipodi:rx="88.58268"
       sodipodi:ry="88.58268"
       d="m 354.3307,1222.4409 c 0,48.9229 -39.65982,88.5827 -88.58268,88.5827 -48.92287,0 -88.58268,-39.6598 -88.58268,-88.5827 0,-48.9228 39.65981,-88.5827 88.58268,-88.5827 48.92286,0 88.58268,39.6599 88.58268,88.5827 z"
       transform="translate(-88.582662,-701.57481)" />
    <path
       sodipodi:type="arc"
       style="fill:#000000"
       id="path2845-2-0"
       sodipodi:cx="265.74802"
       sodipodi:cy="1222.4409"
       sodipodi:rx="88.58268"
       sodipodi:ry="88.58268"
       d="m 354.3307,1222.4409 c 0,48.9229 -39.65982,88.5827 -88.58268,88.5827 -48.92287,0 -88.58268,-39.6598 -88.58268,-88.5827 0,-48.9228 39.65981,-88.5827 88.58268,-88.5827 48.92286,0 88.58268,39.6599 88.58268,88.5827 z"
       transform="translate(265.74806,-701.57481)" />
    <path
       sodipodi:type="arc"
       style="fill:#000000"
       id="path2845-5"
       sodipodi:cx="265.74802"
       sodipodi:cy="1222.4409"
       sodipodi:rx="88.58268"
       sodipodi:ry="88.58268"
       d="m 354.3307,1222.4409 c 0,48.9229 -39.65982,88.5827 -88.58268,88.5827 -48.92287,0 -88.58268,-39.6598 -88.58268,-88.5827 0,-48.9228 39.65981,-88.5827 88.58268,-88.5827 48.92286,0 88.58268,39.6599 88.58268,88.5827 z"
       transform="translate(-88.582673,-1055.9055)" />
    <path
       sodipodi:type="arc"
       style="fill:#000000"
       id="path2845-2-4"
       sodipodi:cx="265.74802"
       sodipodi:cy="1222.4409"
       sodipodi:rx="88.58268"
       sodipodi:ry="88.58268"
       d="m 354.3307,1222.4409 c 0,48.9229 -39.65982,88.5827 -88.58268,88.5827 -48.92287,0 -88.58268,-39.6598 -88.58268,-88.5827 0,-48.9228 39.65981,-88.5827 88.58268,-88.5827 48.92286,0 88.58268,39.6599 88.58268,88.5827 z"
       transform="translate(265.74805,-1055.9055)" />
    <path
       sodipodi:type="arc"
       style="fill:#000000"
       id="path2845-9"
       sodipodi:cx="265.74802"
       sodipodi:cy="1222.4409"
       sodipodi:rx="88.58268"
       sodipodi:ry="88.58268"
       d="m 354.3307,1222.4409 c 0,48.9229 -39.65982,88.5827 -88.58268,88.5827 -48.92287,0 -88.58268,-39.6598 -88.58268,-88.5827 0,-48.9228 39.65981,-88.5827 88.58268,-88.5827 48.92286,0 88.58268,39.6599 88.58268,88.5827 z"
       transform="translate(-88.58267,-1410.2362)" />
    <path
       sodipodi:type="arc"
       style="fill:#000000"
       id="path2845-2-04"
       sodipodi:cx="265.74802"
       sodipodi:cy="1222.4409"
       sodipodi:rx="88.58268"
       sodipodi:ry="88.58268"
       d="m 354.3307,1222.4409 c 0,48.9229 -39.65982,88.5827 -88.58268,88.5827 -48.92287,0 -88.58268,-39.6598 -88.58268,-88.5827 0,-48.9228 39.65981,-88.5827 88.58268,-88.5827 48.92286,0 88.58268,39.6599 88.58268,88.5827 z"
       transform="translate(265.74805,-1410.2362)" />
    <path
       sodipodi:type="arc"
       style="fill:#000000"
       id="path2845-3-1"
       sodipodi:cx="265.74802"
       sodipodi:cy="1222.4409"
       sodipodi:rx="88.58268"
       sodipodi:ry="88.58268"
       d="m 354.3307,1222.4409 c 0,48.9229 -39.65982,88.5827 -88.58268,88.5827 -48.92287,0 -88.58268,-39.6598 -88.58268,-88.5827 0,-48.9228 39.65981,-88.5827 88.58268,-88.5827 48.92286,0 88.58268,39.6599 88.58268,88.5827 z"
       transform="translate(88.582692,-878.74016)" />
    <path
       sodipodi:type="arc"
       style="fill:#000000"
       id="path2845-7-4"
       sodipodi:cx="265.74802"
       sodipodi:cy="1222.4409"
       sodipodi:rx="88.58268"
       sodipodi:ry="88.58268"
       d="m 354.3307,1222.4409 c 0,48.9229 -39.65982,88.5827 -88.58268,88.5827 -48.92287,0 -88.58268,-39.6598 -88.58268,-88.5827 0,-48.9228 39.65981,-88.5827 88.58268,-88.5827 48.92286,0 88.58268,39.6599 88.58268,88.5827 z"
       transform="translate(442.9134,-878.74016)" />
    <path
       sodipodi:type="arc"
       style="fill:#000000"
       id="path2845-3-15"
       sodipodi:cx="265.74802"
       sodipodi:cy="1222.4409"
       sodipodi:rx="88.58268"
       sodipodi:ry="88.58268"
       d="m 354.3307,1222.4409 c 0,48.9229 -39.65982,88.5827 -88.58268,88.5827 -48.92287,0 -88.58268,-39.6598 -88.58268,-88.5827 0,-48.9228 39.65981,-88.5827 88.58268,-88.5827 48.92286,0 88.58268,39.6599 88.58268,88.5827 z"
       transform="translate(88.58269,-1233.0709)" />
    <path
       sodipodi:type="arc"
       style="fill:#000000"
       id="path2845-7-0"
       sodipodi:cx="265.74802"
       sodipodi:cy="1222.4409"
       sodipodi:rx="88.58268"
       sodipodi:ry="88.58268"
       d="m 354.3307,1222.4409 c 0,48.9229 -39.65982,88.5827 -88.58268,88.5827 -48.92287,0 -88.58268,-39.6598 -88.58268,-88.5827 0,-48.9228 39.65981,-88.5827 88.58268,-88.5827 48.92286,0 88.58268,39.6599 88.58268,88.5827 z"
       transform="translate(442.9134,-1233.0709)" />
  </g>
</svg>
